<?xml version="1.0" encoding="UTF-8"?>
<!DOCTYPE svg PUBLIC "-//W3C//DTD SVG 1.1//EN" "http://www.w3.org/Graphics/SVG/1.1/DTD/svg11.dtd">
<svg version="1.2" width="262.5mm" height="371.25mm" viewBox="0 0 26250 37125" preserveAspectRatio="xMidYMid" fill-rule="evenodd" stroke-width="28.222" stroke-linejoin="round" xmlns="http://www.w3.org/2000/svg" xmlns:ooo="http://xml.openoffice.org/svg/export" xmlns:xlink="http://www.w3.org/1999/xlink" xmlns:presentation="http://sun.com/xmlns/staroffice/presentation" xmlns:smil="http://www.w3.org/2001/SMIL20/" xmlns:anim="urn:oasis:names:tc:opendocument:xmlns:animation:1.0" xml:space="preserve">
 <defs class="ClipPathGroup">
  <clipPath id="presentation_clip_path" clipPathUnits="userSpaceOnUse">
   <rect x="0" y="0" width="26250" height="37125"/>
  </clipPath>
  <clipPath id="presentation_clip_path_shrink" clipPathUnits="userSpaceOnUse">
   <rect x="26" y="37" width="26198" height="37051"/>
  </clipPath>
 </defs>
 <defs class="TextShapeIndex">
  <g ooo:slide="id1" ooo:id-list="id3 id4 id5 id6 id7 id8 id9 id10 id11 id12 id13 id14 id15 id16"/>
 </defs>
 <defs class="EmbeddedBulletChars">
  <g id="bullet-char-template-57356" transform="scale(0.00048828125,-0.00048828125)">
   <path d="M 580,1141 L 1163,571 580,0 -4,571 580,1141 Z"/>
  </g>
  <g id="bullet-char-template-57354" transform="scale(0.00048828125,-0.00048828125)">
   <path d="M 8,1128 L 1137,1128 1137,0 8,0 8,1128 Z"/>
  </g>
  <g id="bullet-char-template-10146" transform="scale(0.00048828125,-0.00048828125)">
   <path d="M 174,0 L 602,739 174,1481 1456,739 174,0 Z M 1358,739 L 309,1346 659,739 1358,739 Z"/>
  </g>
  <g id="bullet-char-template-10132" transform="scale(0.00048828125,-0.00048828125)">
   <path d="M 2015,739 L 1276,0 717,0 1260,543 174,543 174,936 1260,936 717,1481 1274,1481 2015,739 Z"/>
  </g>
  <g id="bullet-char-template-10007" transform="scale(0.00048828125,-0.00048828125)">
   <path d="M 0,-2 C -7,14 -16,27 -25,37 L 356,567 C 262,823 215,952 215,954 215,979 228,992 255,992 264,992 276,990 289,987 310,991 331,999 354,1012 L 381,999 492,748 772,1049 836,1024 860,1049 C 881,1039 901,1025 922,1006 886,937 835,863 770,784 769,783 710,716 594,584 L 774,223 C 774,196 753,168 711,139 L 727,119 C 717,90 699,76 672,76 641,76 570,178 457,381 L 164,-76 C 142,-110 111,-127 72,-127 30,-127 9,-110 8,-76 1,-67 -2,-52 -2,-32 -2,-23 -1,-13 0,-2 Z"/>
  </g>
  <g id="bullet-char-template-10004" transform="scale(0.00048828125,-0.00048828125)">
   <path d="M 285,-33 C 182,-33 111,30 74,156 52,228 41,333 41,471 41,549 55,616 82,672 116,743 169,778 240,778 293,778 328,747 346,684 L 369,508 C 377,444 397,411 428,410 L 1163,1116 C 1174,1127 1196,1133 1229,1133 1271,1133 1292,1118 1292,1087 L 1292,965 C 1292,929 1282,901 1262,881 L 442,47 C 390,-6 338,-33 285,-33 Z"/>
  </g>
  <g id="bullet-char-template-9679" transform="scale(0.00048828125,-0.00048828125)">
   <path d="M 813,0 C 632,0 489,54 383,161 276,268 223,411 223,592 223,773 276,916 383,1023 489,1130 632,1184 813,1184 992,1184 1136,1130 1245,1023 1353,916 1407,772 1407,592 1407,412 1353,268 1245,161 1136,54 992,0 813,0 Z"/>
  </g>
  <g id="bullet-char-template-8226" transform="scale(0.00048828125,-0.00048828125)">
   <path d="M 346,457 C 273,457 209,483 155,535 101,586 74,649 74,723 74,796 101,859 155,911 209,963 273,989 346,989 419,989 480,963 531,910 582,859 608,796 608,723 608,648 583,586 532,535 482,483 420,457 346,457 Z"/>
  </g>
  <g id="bullet-char-template-8211" transform="scale(0.00048828125,-0.00048828125)">
   <path d="M -4,459 L 1135,459 1135,606 -4,606 -4,459 Z"/>
  </g>
  <g id="bullet-char-template-61548" transform="scale(0.00048828125,-0.00048828125)">
   <path d="M 173,740 C 173,903 231,1043 346,1159 462,1274 601,1332 765,1332 928,1332 1067,1274 1183,1159 1299,1043 1357,903 1357,740 1357,577 1299,437 1183,322 1067,206 928,148 765,148 601,148 462,206 346,322 231,437 173,577 173,740 Z"/>
  </g>
 </defs>
 <defs class="TextEmbeddedBitmaps"/>
 <g>
  <g id="id2" class="Master_Slide">
   <g id="bg-id2" class="Background"/>
   <g id="bo-id2" class="BackgroundObjects"/>
  </g>
 </g>
 <g class="SlideGroup">
  <g>
   <g id="container-id1">
    <g id="id1" class="Slide" clip-path="url(#presentation_clip_path)">
     <g class="Page">
      <g class="com.sun.star.drawing.PolyPolygonShape">
       <g id="id3">
        <rect class="BoundingBox" stroke="none" fill="none" x="13" y="8" width="26252" height="37127"/>
       </g>
      </g>
      <g class="com.sun.star.drawing.ClosedBezierShape">
       <g id="id4">
        <rect class="BoundingBox" stroke="none" fill="none" x="4761" y="1821" width="16254" height="32940"/>
        <path fill="rgb(128,128,128)" stroke="none" d="M 18933,34759 C 19974,34759 21014,33719 21014,32678 L 21014,3902 C 21014,2862 19974,1821 18933,1821 L 6844,1821 C 5803,1821 4762,2862 4762,3902 L 4762,32678 C 4762,33719 5803,34759 6844,34759 L 18933,34759 Z"/>
       </g>
      </g>
      <g class="com.sun.star.drawing.ClosedBezierShape">
       <g id="id5">
        <rect class="BoundingBox" stroke="none" fill="none" x="4744" y="1803" width="16289" height="32975"/>
        <path fill="none" stroke="rgb(128,128,128)" stroke-width="35" stroke-linejoin="round" d="M 18933,34759 C 19974,34759 21014,33719 21014,32678 L 21014,3902 C 21014,2862 19974,1821 18933,1821 L 6844,1821 C 5803,1821 4762,2862 4762,3902 L 4762,32678 C 4762,33719 5803,34759 6844,34759 L 18933,34759 Z"/>
       </g>
      </g>
      <g class="com.sun.star.drawing.ClosedBezierShape">
       <g id="id6">
        <rect class="BoundingBox" stroke="none" fill="none" x="5011" y="2071" width="16254" height="32939"/>
        <path fill="rgb(0,0,0)" stroke="none" d="M 19183,35009 C 20224,35009 21264,33969 21264,32928 L 21264,4152 C 21264,3112 20224,2071 19183,2071 L 7094,2071 C 6053,2071 5012,3112 5012,4152 L 5012,32928 C 5012,33969 6053,35009 7094,35009 L 19183,35009 Z"/>
       </g>
      </g>
      <g class="com.sun.star.drawing.ClosedBezierShape">
       <g id="id7">
        <rect class="BoundingBox" stroke="none" fill="none" x="4994" y="2053" width="16289" height="32975"/>
        <path fill="none" stroke="rgb(0,0,0)" stroke-width="35" stroke-linejoin="round" d="M 19183,35009 C 20224,35009 21264,33969 21264,32928 L 21264,4152 C 21264,3112 20224,2071 19183,2071 L 7094,2071 C 6053,2071 5012,3112 5012,4152 L 5012,32928 C 5012,33969 6053,35009 7094,35009 L 19183,35009 Z"/>
       </g>
      </g>
      <g class="com.sun.star.drawing.PolyPolygonShape">
       <g id="id8">
        <rect class="BoundingBox" stroke="none" fill="none" x="5012" y="2069" width="16253" height="32942"/>
       </g>
      </g>
      <g class="com.sun.star.drawing.ClosedBezierShape">
       <g id="id9">
        <rect class="BoundingBox" stroke="none" fill="none" x="11237" y="2707" width="3803" height="1603"/>
        <path fill="rgb(0,0,0)" stroke="none" d="M 14480,4309 C 14760,4309 15039,4030 15039,3750 L 15039,3267 C 15039,2987 14760,2707 14480,2707 L 11797,2707 C 11517,2707 11237,2987 11237,3267 L 11237,3750 C 11237,4030 11517,4309 11797,4309 L 14480,4309 Z"/>
       </g>
      </g>
      <g class="com.sun.star.drawing.ClosedBezierShape">
       <g id="id10">
        <rect class="BoundingBox" stroke="none" fill="none" x="11205" y="2675" width="3867" height="1667"/>
        <path fill="none" stroke="rgb(255,255,255)" stroke-width="63" stroke-linejoin="round" d="M 14480,4309 C 14760,4309 15039,4030 15039,3750 L 15039,3267 C 15039,2987 14760,2707 14480,2707 L 11797,2707 C 11517,2707 11237,2987 11237,3267 L 11237,3750 C 11237,4030 11517,4309 11797,4309 L 14480,4309 Z"/>
       </g>
      </g>
      <g class="com.sun.star.drawing.PolyPolygonShape">
       <g id="id11">
        <rect class="BoundingBox" stroke="none" fill="none" x="11237" y="2707" width="3803" height="1603"/>
       </g>
      </g>
      <g class="com.sun.star.drawing.ClosedBezierShape">
       <g id="id12">
        <rect class="BoundingBox" stroke="none" fill="none" x="11512" y="33772" width="3254" height="338"/>
        <path fill="rgb(0,0,0)" stroke="none" d="M 14596,34109 C 14680,34109 14764,34025 14764,33941 14764,33857 14680,33772 14596,33772 L 11681,33772 C 11597,33772 11512,33857 11512,33941 11512,34025 11597,34109 11681,34109 L 14596,34109 Z"/>
       </g>
      </g>
      <g class="com.sun.star.drawing.ClosedBezierShape">
       <g id="id13">
        <rect class="BoundingBox" stroke="none" fill="none" x="11480" y="33740" width="3317" height="402"/>
        <path fill="none" stroke="rgb(255,255,255)" stroke-width="63" stroke-linejoin="round" d="M 14596,34109 C 14680,34109 14764,34025 14764,33941 14764,33857 14680,33772 14596,33772 L 11681,33772 C 11597,33772 11512,33857 11512,33941 11512,34025 11597,34109 11681,34109 L 14596,34109 Z"/>
       </g>
      </g>
      <g class="com.sun.star.drawing.PolyPolygonShape">
       <g id="id14">
        <rect class="BoundingBox" stroke="none" fill="none" x="11512" y="33772" width="3254" height="338"/>
       </g>
      </g>
      <g class="com.sun.star.drawing.PolyPolygonShape">
       <g id="id15">
        <rect class="BoundingBox" stroke="none" fill="none" x="5457" y="4870" width="15239" height="26896"/>
        <path fill="rgb(255,255,255)" stroke="none" d="M 13076,4870 L 20695,4870 20695,31765 5457,31765 5457,4870 13076,4870 Z"/>
       </g>
      </g>
      <g class="com.sun.star.drawing.PolyPolygonShape">
       <g id="id16">
        <rect class="BoundingBox" stroke="none" fill="none" x="5439" y="4852" width="15275" height="26932"/>
        <path fill="none" stroke="rgb(255,255,255)" stroke-width="35" stroke-linejoin="round" d="M 13076,4870 L 20695,4870 20695,31765 5457,31765 5457,4870 13076,4870 Z"/>
       </g>
      </g>
     </g>
    </g>
   </g>
  </g>
 </g>
</svg>